<?xml version="1.0" encoding="UTF-8"?>
<!DOCTYPE svg PUBLIC "-//W3C//DTD SVG 1.1//EN" "http://www.w3.org/Graphics/SVG/1.1/DTD/svg11.dtd">
<svg version="1.1" id="Layer_1" xmlns="http://www.w3.org/2000/svg" xmlns:xlink="http://www.w3.org/1999/xlink" x="0px" y="0px" width="32px" height="32px" viewBox="0 0 32 32" enable-background="new 0 0 32 32" xml:space="preserve">
  <g id="icon">
    <path d="M30.841,25.496c-0.75,-3.788,-2.085,-3.851,-9.384,-6.429c-1.066,-0.4,-1.367,-0.976,-1.287,-1.798c2.059,-2.461,3.299,-6.443,3.299,-9.227c0,-4.311,-1.471,-7.041,-7.495,-7.041S8.601,3.731,8.601,8.041c0,2.784,1.236,6.758,3.294,9.219c0.08,0.822,-0.224,1.402,-1.289,1.802c-7.299,2.578,-8.635,2.643,-9.385,6.431c-0.226,1.523,-0.263,2.161,0.338,3.848c0.676,1.899,10.233,1.651,14.416,1.651c4.183,0,13.852,0.249,14.528,-1.65C31.104,27.655,31.067,27.018,30.841,25.496zM17.73,30h-3.46c-0.143,0,-0.254,-0.126,-0.237,-0.268L15.3,22.467l-0.884,-1.846c-0.144,-0.284,0.062,-0.621,0.381,-0.621h2.407c0.319,0,0.525,0.337,0.381,0.621L16.7,22.467l1.267,7.265C17.984,29.874,17.873,30,17.73,30z" fill-rule="evenodd" fill="#2D85A0"/>
  </g>
</svg>
