<?xml version="1.0" encoding="UTF-8"?>
<!DOCTYPE svg PUBLIC "-//W3C//DTD SVG 1.1//EN" "http://www.w3.org/Graphics/SVG/1.1/DTD/svg11.dtd">
<svg version="1.1" id="Layer_1" xmlns="http://www.w3.org/2000/svg" xmlns:xlink="http://www.w3.org/1999/xlink" x="0px" y="0px" width="24px" height="24px" viewBox="0 0 24 24" enable-background="new 0 0 24 24" xml:space="preserve">
  <g id="main">
    <clipPath id="clip_mask">
      <path d="M0,0v16.3436C0.9961,14.9278,2.6412,14,4.5,14c3.0327,0,5.5,2.4673,5.5,5.5c0,1.8588,-0.9278,3.5039,-2.3436,4.5H24V0H0z"/>
    </clipPath>
    <g id="icon" clip-path="url(#clip_mask)">
      <g id="transformed_icon" transform="translate(1 0)">
        <circle cx="12" cy="12" r="10.9899" fill="#71BFD7"/>
        <path d="M19.7899,4.3387c-0.015,-0.015,-0.0303,-0.0293,-0.0453,-0.0442L4.2945,19.7446c0.0149,0.015,0.0292,0.0304,0.0442,0.0453c4.2667,4.2667,11.1845,4.2667,15.4512,0S24.0566,8.6054,19.7899,4.3387z" fill="#57B3CF" opacity="0.7"/>
        <path d="M11.4,9.4h1.2c0.22,0,0.4,0.18,0.4,0.4v7.8c0,0.22,-0.18,0.4,-0.4,0.4h-1.2c-0.22,0,-0.4,-0.18,-0.4,-0.4V9.8C11,9.58,11.18,9.4,11.4,9.4zM11,6.4v1.2c0,0.22,0.18,0.4,0.4,0.4h1.2c0.22,0,0.4,-0.18,0.4,-0.4V6.4c0,-0.22,-0.18,-0.4,-0.4,-0.4h-1.2C11.18,6,11,6.18,11,6.4z" fill="#FFFFFF"/>
      </g>
    </g>
    <g id="overlay">
      <circle cx="4.5" cy="19.5" r="4.4899" fill="#71BFD7"/>
      <path d="M7.6826,16.37c-0.0061,-0.0061,-0.0124,-0.012,-0.0185,-0.0181l-6.3121,6.3121c0.0061,0.0061,0.0119,0.0124,0.0181,0.0185c1.7432,1.7432,4.5694,1.7432,6.3126,0S9.4257,18.1131,7.6826,16.37z" fill="#57B3CF" opacity="0.7"/>
      <path d="M4.2,19h0.6c0.1105,0,0.2,0.0895,0.2,0.2v2.9c0,0.1105,-0.0895,0.2,-0.2,0.2h-0.6c-0.1105,0,-0.2,-0.0895,-0.2,-0.2v-2.9C4,19.0895,4.0895,19,4.2,19zM4,16.9v0.9c0,0.1105,0.0895,0.2,0.2,0.2h0.6c0.1105,0,0.2,-0.0895,0.2,-0.2v-0.9c0,-0.1105,-0.0895,-0.2,-0.2,-0.2h-0.6C4.0895,16.7,4,16.7895,4,16.9z" fill="#FFFFFF"/>
    </g>
  </g>
</svg>
