<?xml version="1.0" encoding="UTF-8"?>
<!DOCTYPE svg PUBLIC "-//W3C//DTD SVG 1.1//EN" "http://www.w3.org/Graphics/SVG/1.1/DTD/svg11.dtd">
<svg version="1.1" id="Layer_1" xmlns="http://www.w3.org/2000/svg" xmlns:xlink="http://www.w3.org/1999/xlink" x="0px" y="0px" width="24px" height="24px" viewBox="0 0 24 24" enable-background="new 0 0 24 24" xml:space="preserve">
  <g id="icon">
    <path d="M22.881,19.153c-0.552,-2.651,-1.511,-2.749,-6.881,-4.553c-0.01,0.014,-0.02,0.028,-0.03,0.042c-0.124,-0.06,-0.247,-0.121,-0.369,-0.186c-0.142,-0.075,-0.245,-0.234,-0.304,-0.342c-0.204,-0.439,-0.161,-1.191,-0.057,-1.884c0.018,-0.016,0.037,-0.034,0.054,-0.05c0.015,-0.032,0.033,-0.063,0.052,-0.092c0.324,-0.498,0.602,-1.007,0.62,-1.6c0.007,-0.224,0.071,-0.447,0.114,-0.698c0.088,0.065,0.118,0.367,0.244,0.354c0.126,-0.013,0.173,-0.468,0.21,-0.617c0.143,-0.574,0.168,-1.151,0.3,-1.727c0.036,-0.157,0.159,-0.368,-0.074,-0.435c-0.137,-0.039,-0.214,0.043,-0.269,0.145c0,-0.001,0.001,-0.003,0.001,-0.005c0.071,-0.283,0.071,-0.581,0.159,-0.858c0.228,-0.715,0.148,-1.443,0.132,-2.164c-0.012,-0.551,-0.549,-1.566,-0.787,-1.826c-0.823,-1.077,-2.425,-1.623,-3.991,-1.653c-1.597,0.03,-3.19,0.576,-4.013,1.653c-0.238,0.261,-0.786,1.276,-0.798,1.826c-0.016,0.72,-0.102,1.448,0.126,2.164c0.088,0.277,0.085,0.576,0.157,0.858c0.012,0.047,0.026,0.099,0.041,0.155c-0.06,-0.146,-0.132,-0.352,-0.335,-0.295c-0.233,0.066,-0.11,0.277,-0.074,0.435c0.132,0.576,0.255,1.154,0.398,1.727c0.037,0.149,0.084,0.604,0.21,0.617c0.126,0.013,0.156,-0.289,0.244,-0.354c0.043,0.251,0.107,0.474,0.114,0.698c0.019,0.594,0.296,1.102,0.62,1.6c0.019,0.029,0.037,0.06,0.052,0.092c0.017,0.016,0.038,0.035,0.056,0.052c0.103,0.692,0.147,1.444,-0.057,1.882c-0.059,0.108,-0.162,0.267,-0.304,0.342c-0.132,0.07,-0.266,0.136,-0.4,0.2c-0.014,-0.019,-0.027,-0.037,-0.041,-0.056c-5.371,1.804,-6.362,1.9,-6.914,4.551c-0.166,1.066,-0.194,1.512,0.248,2.693C1.832,23.173,8.864,23,11.942,23c3.078,0,10.193,0.175,10.69,-1.154C23.074,20.664,23.047,20.218,22.881,19.153z" fill="#49ADCB"/>
    <path d="M22.881,19.153c-0.552,-2.651,-1.511,-2.749,-6.881,-4.553c-0.01,0.014,-0.02,0.028,-0.03,0.042c-0.124,-0.06,-0.247,-0.121,-0.369,-0.186c-0.142,-0.075,-0.245,-0.234,-0.304,-0.342c-0.204,-0.439,-0.161,-1.191,-0.057,-1.884c0.018,-0.016,0.037,-0.034,0.054,-0.05c0.015,-0.032,0.033,-0.063,0.052,-0.092c0.324,-0.498,0.602,-1.007,0.62,-1.6c0.007,-0.224,0.071,-0.447,0.114,-0.698c0.088,0.065,0.118,0.367,0.244,0.354c0.126,-0.013,0.173,-0.468,0.21,-0.617c0.143,-0.574,0.168,-1.151,0.3,-1.727c0.036,-0.157,0.159,-0.368,-0.074,-0.435c-0.137,-0.039,-0.214,0.043,-0.269,0.145c0,-0.001,0.001,-0.003,0.001,-0.005c0.071,-0.283,0.071,-0.581,0.159,-0.858c0.228,-0.715,0.148,-1.443,0.132,-2.164c-0.012,-0.551,-0.549,-1.566,-0.787,-1.826c-0.823,-1.077,-2.425,-1.623,-3.991,-1.653c-0.002,0,-0.003,0,-0.005,0V23c3.108,0.002,10.138,0.166,10.632,-1.155C23.074,20.664,23.047,20.218,22.881,19.153z" fill="#0E2A33" opacity="0.15"/>
  </g>
</svg>
