<?xml version="1.0" encoding="UTF-8"?>
<!DOCTYPE svg PUBLIC "-//W3C//DTD SVG 1.1//EN" "http://www.w3.org/Graphics/SVG/1.1/DTD/svg11.dtd">
<svg version="1.1" id="Layer_1" xmlns="http://www.w3.org/2000/svg" xmlns:xlink="http://www.w3.org/1999/xlink" x="0px" y="0px" width="24px" height="24px" viewBox="0 0 24 24" enable-background="new 0 0 24 24" xml:space="preserve">
  <g id="icon">
    <circle cx="14" cy="10" r="8" fill-rule="evenodd" fill="#F4FAFC"/>
    <path d="M6.5391,14.4111l-5.0852,5.212c-0.5917,0.5917,-0.5917,1.5599,0,2.1516l0.7756,0.7756c0.5917,0.5917,1.5599,0.5917,2.1516,0l5.1334,-5.2601C8.3427,16.5357,7.3302,15.5562,6.5391,14.4111z" fill-rule="evenodd" fill="#71BFD7"/>
    <path d="M7.8705,15.9834L1.7953,22.116l0.4342,0.4342c0.5917,0.5917,1.5599,0.5917,2.1516,0l5.1334,-5.2601C8.9231,16.9094,8.3727,16.4711,7.8705,15.9834z" fill-rule="evenodd" fill="#57B3CF"/>
    <path d="M14,1c-4.9706,0,-9,4.0294,-9,9s4.0294,9,9,9s9,-4.0294,9,-9S18.9706,1,14,1zM14,16.9c-3.8108,0,-6.9,-3.0892,-6.9,-6.9c0,-3.8108,3.0892,-6.9,6.9,-6.9s6.9,3.0892,6.9,6.9C20.9,13.8108,17.8108,16.9,14,16.9z" fill-rule="evenodd" fill="#59B4D0"/>
    <path d="M14,19c4.9706,0,9,-4.0294,9,-9c0,-2.4853,-1.0074,-4.7353,-2.636,-6.364L7.636,16.364C9.2647,17.9926,11.5147,19,14,19z" fill-rule="evenodd" fill="#0E2A33" opacity="0.05"/>
    <path d="M20.364,3.636L18.879,5.121C20.1277,6.3696,20.9,8.0946,20.9,10c0,3.8108,-3.0892,6.9,-6.9,6.9c-1.9054,0,-3.6304,-0.7723,-4.879,-2.021L7.636,16.364C9.2647,17.9926,11.5147,19,14,19c4.9706,0,9,-4.0294,9,-9C23,7.5147,21.9926,5.2647,20.364,3.636z" fill-rule="evenodd" fill="#0E2A33" opacity="0.13"/>
  </g>
</svg>
