<?xml version="1.0" encoding="UTF-8"?>
<!DOCTYPE svg PUBLIC "-//W3C//DTD SVG 1.1//EN" "http://www.w3.org/Graphics/SVG/1.1/DTD/svg11.dtd">
<svg version="1.1" id="Layer_1" xmlns="http://www.w3.org/2000/svg" xmlns:xlink="http://www.w3.org/1999/xlink" x="0px" y="0px" width="24px" height="24px" viewBox="0 0 24 24" enable-background="new 0 0 24 24" xml:space="preserve">
  <g id="icon">
    <path d="M15.8,0.994c-3.97,0,-7.2,2.19,-7.2,4.882c0,1.744,1.321,3.315,3.533,4.203c0.009,0.004,0.014,0.013,0.011,0.021l-1.006,2.582c-0.042,0.107,-0.029,0.222,0.035,0.315c0.065,0.095,0.171,0.151,0.283,0.151c0.068,0,0.135,-0.021,0.192,-0.06l3.436,-2.351c0.002,-0.002,0.005,-0.002,0.009,-0.002c0,0,0,0,0,0c0.238,0.016,0.476,0.024,0.707,0.024c3.97,0,7.2,-2.19,7.2,-4.882S19.77,0.994,15.8,0.994z" fill-rule="evenodd" fill="#59B4D0"/>
    <path d="M15.476,22.121c-0.001,0.001,-0.128,0.076,-0.336,0.181l-0.007,0.004l-0.008,0.001c-0.036,0.004,-0.073,0.007,-0.11,0.01c-0.669,0.328,-1.975,0.863,-2.98,0.624c-0.181,-0.024,-4.362,-0.623,-8.182,-6.73C1.089,11.792,0.405,8.857,1.492,6.081c0.355,-0.92,1.242,-1.701,1.831,-2.142c0.017,-0.029,0.034,-0.059,0.051,-0.088l0.004,-0.007l0.007,-0.005c0.278,-0.202,0.474,-0.32,0.476,-0.321c0.356,-0.208,0.77,-0.271,1.167,-0.177c0.377,0.089,0.693,0.312,0.889,0.626l0.003,0.004l1.249,3.716c0.413,0.667,0.17,1.548,-0.544,1.966l-1.084,0.634c-0.322,0.188,-0.427,0.594,-0.235,0.906c0.863,1.401,2.968,4.766,3.818,6.103c0.095,0.149,0.244,0.254,0.419,0.296c0.178,0.042,0.362,0.015,0.519,-0.077l1.083,-0.634c0.355,-0.208,0.769,-0.27,1.166,-0.176c0.375,0.089,0.69,0.31,0.888,0.621l2.822,2.794l0.003,0.004C16.437,20.791,16.186,21.704,15.476,22.121z" fill="#57B3CF"/>
    <path d="M17.914,1.209l-4.69,10.799l1.859,-1.272c0.002,-0.002,0.005,-0.002,0.009,-0.002c0,0,0,0,0,0c0.238,0.016,0.476,0.024,0.707,0.024c3.97,0,7.2,-2.19,7.2,-4.882C23,3.683,20.856,1.823,17.914,1.209z" fill-rule="evenodd" fill="#0E2A33" opacity="0.12"/>
    <path d="M13.926,22.221c-0.566,-0.134,-1.102,-0.387,-1.47,-0.693c-5.129,-4.264,-7.974,-8.8,-9.516,-15.167c-0.187,-0.772,-0.008,-1.803,0.434,-2.509l0.004,-0.007l0.007,-0.005c0.278,-0.202,0.474,-0.32,0.476,-0.321c0.356,-0.208,0.77,-0.271,1.167,-0.177c0.377,0.089,0.693,0.312,0.889,0.626l0.003,0.004l1.249,3.716c0.413,0.667,0.17,1.548,-0.544,1.966l-1.084,0.634c-0.322,0.188,-0.427,0.594,-0.235,0.906c0.863,1.401,2.968,4.766,3.818,6.103c0.095,0.149,0.244,0.254,0.419,0.296c0.178,0.042,0.362,0.015,0.519,-0.077l1.083,-0.634c0.355,-0.208,0.769,-0.27,1.166,-0.176c0.375,0.089,0.69,0.31,0.888,0.621l2.822,2.794l0.003,0.004c0.414,0.664,0.163,1.577,-0.547,1.994c-0.001,0.001,-0.128,0.076,-0.336,0.181l-0.007,0.004l-0.008,0.001C14.759,22.35,14.344,22.32,13.926,22.221z" fill="#FFFFFF" opacity="0.12"/>
    <path d="M12.253,4.533c0.716,0,1.296,0.578,1.296,1.291c0,0.713,-0.58,1.291,-1.296,1.291c-0.716,0,-1.296,-0.578,-1.296,-1.291C10.957,5.111,11.537,4.533,12.253,4.533zM15.901,4.533c0.715,0,1.294,0.578,1.294,1.291c0,0.713,-0.579,1.291,-1.294,1.291s-1.294,-0.578,-1.294,-1.291C14.607,5.111,15.186,4.533,15.901,4.533zM19.546,4.531c0.715,0,1.295,0.578,1.295,1.292c0,0.713,-0.58,1.292,-1.295,1.292c-0.715,0,-1.295,-0.578,-1.295,-1.292C18.252,5.11,18.831,4.531,19.546,4.531z" fill-rule="evenodd" fill="#FFFFFF"/>
  </g>
</svg>
