<?xml version="1.0" encoding="UTF-8"?>
<!DOCTYPE svg PUBLIC "-//W3C//DTD SVG 1.1//EN" "http://www.w3.org/Graphics/SVG/1.1/DTD/svg11.dtd">
<svg version="1.1" id="Layer_1" xmlns="http://www.w3.org/2000/svg" xmlns:xlink="http://www.w3.org/1999/xlink" x="0px" y="0px" width="24px" height="24px" viewBox="0 0 24 24" enable-background="new 0 0 24 24" xml:space="preserve">
  <g id="icon">
    <path d="M1.5,3.5h21c0.276,0,0.5,0.224,0.5,0.5v0c0,0.276,-0.224,0.5,-0.5,0.5H1.5c-0.276,0,-0.5,-0.224,-0.5,-0.5v0C1,3.724,1.224,3.5,1.5,3.5z" fill-rule="evenodd" fill="#ED5564"/>
    <path d="M18.185,9.454c-2.032,-0.355,-4.674,-0.45,-6.135,-0.454c-0.001,0,-0.002,0,-0.002,0c-0.023,0,-0.047,0,-0.07,0c-0.009,0,-0.018,0,-0.026,0c0,0,-0.001,0,-0.001,0c-1.397,0.002,-2.637,0.04,-6.136,0.454C4.495,9.696,4,10.85,4,12.212c0,2.144,4.182,3.415,4.182,5.23s0.094,5.024,0.606,5.539c0.504,0.507,0.575,0.985,3.15,0.998c0.005,0,0.01,0.001,0.014,0.001c0.016,0,0.032,0,0.048,0c0.016,0,0.031,0,0.048,0c0.005,0,0.01,-0.001,0.014,-0.001c2.575,-0.013,2.646,-0.491,3.15,-0.998c0.511,-0.514,0.606,-3.723,0.606,-5.539S20,14.356,20,12.212C20,10.85,19.345,9.636,18.185,9.454z" fill-rule="evenodd" fill="#5D9CEC"/>
    <path d="M11.99,11.977c1.11,0,2.01,0.904,2.01,2.02c0,1.116,-0.9,2.02,-2.01,2.02s-2.01,-0.904,-2.01,-2.02C9.981,12.881,10.881,11.977,11.99,11.977z" fill-rule="evenodd" fill="#FFFFFF"/>
    <path d="M10,2.8V0.2c0,-0.11,0.09,-0.2,0.2,-0.2h1.6c0.11,0,0.2,0.09,0.2,0.2v2.6c0,0.11,-0.09,0.2,-0.2,0.2h-1.6C10.09,3,10,2.91,10,2.8zM14,2.8V0.2c0,-0.11,-0.09,-0.2,-0.2,-0.2h-0.6c-0.11,0,-0.2,0.09,-0.2,0.2v2.6c0,0.11,0.09,0.2,0.2,0.2h0.6C13.91,3,14,2.91,14,2.8zM6.9,2.8V0.2c0,-0.11,-0.09,-0.2,-0.2,-0.2H5.2c-0.11,0,-0.2,0.09,-0.2,0.2v2.6c0,0.11,0.09,0.2,0.2,0.2h1.5C6.81,3,6.9,2.91,6.9,2.8zM16,2.8V0.2c0,-0.11,-0.09,-0.2,-0.2,-0.2h-0.6c-0.11,0,-0.2,0.09,-0.2,0.2v2.6c0,0.11,0.09,0.2,0.2,0.2h0.6C15.91,3,16,2.91,16,2.8zM9,2.8V0.2c0,-0.11,-0.09,-0.2,-0.2,-0.2h-0.6c-0.11,0,-0.2,0.09,-0.2,0.2v2.6c0,0.11,0.09,0.2,0.2,0.2h0.6C8.91,3,9,2.91,9,2.8zM21,2.8V0.2c0,-0.11,-0.09,-0.2,-0.2,-0.2h-0.6c-0.11,0,-0.2,0.09,-0.2,0.2v2.6c0,0.11,0.09,0.2,0.2,0.2h0.6C20.91,3,21,2.91,21,2.8zM19,2.8V0.2c0,-0.11,-0.09,-0.2,-0.2,-0.2h-1.6c-0.11,0,-0.2,0.09,-0.2,0.2v2.6c0,0.11,0.09,0.2,0.2,0.2h1.6C18.91,3,19,2.91,19,2.8zM4,2.8V0.2c0,-0.11,-0.09,-0.2,-0.2,-0.2h-0.6c-0.11,0,-0.2,0.09,-0.2,0.2v2.6c0,0.11,0.09,0.2,0.2,0.2h0.6C3.91,3,4,2.91,4,2.8zM17,5.2v2.6c0,0.11,0.09,0.2,0.2,0.2h1.6c0.11,0,0.2,-0.09,0.2,-0.2V5.2c0,-0.11,-0.09,-0.2,-0.2,-0.2h-1.6C17.09,5,17,5.09,17,5.2zM3,5.2v2.6c0,0.11,0.09,0.2,0.2,0.2h0.6c0.11,0,0.2,-0.09,0.2,-0.2V5.2c0,-0.11,-0.09,-0.2,-0.2,-0.2h-0.6C3.09,5,3,5.09,3,5.2zM20,5.2v2.6c0,0.11,0.09,0.2,0.2,0.2h0.6c0.11,0,0.2,-0.09,0.2,-0.2V5.2c0,-0.11,-0.09,-0.2,-0.2,-0.2h-0.6C20.09,5,20,5.09,20,5.2zM8,5.2v2.6c0,0.11,0.09,0.2,0.2,0.2h0.6c0.11,0,0.2,-0.09,0.2,-0.2V5.2c0,-0.11,-0.09,-0.2,-0.2,-0.2h-0.6C8.09,5,8,5.09,8,5.2zM5,5.2v2.6c0,0.11,0.09,0.2,0.2,0.2h1.5c0.11,0,0.2,-0.09,0.2,-0.2V5.2c0,-0.11,-0.09,-0.2,-0.2,-0.2H5.2C5.09,5,5,5.09,5,5.2zM10,5.2v2.6c0,0.11,0.09,0.2,0.2,0.2h1.6c0.11,0,0.2,-0.09,0.2,-0.2V5.2c0,-0.11,-0.09,-0.2,-0.2,-0.2h-1.6C10.09,5,10,5.09,10,5.2zM15,5.2v2.6c0,0.11,0.09,0.2,0.2,0.2h0.6c0.11,0,0.2,-0.09,0.2,-0.2V5.2c0,-0.11,-0.09,-0.2,-0.2,-0.2h-0.6C15.09,5,15,5.09,15,5.2zM13,5.2v2.6c0,0.11,0.09,0.2,0.2,0.2h0.6c0.11,0,0.2,-0.09,0.2,-0.2V5.2c0,-0.11,-0.09,-0.2,-0.2,-0.2h-0.6C13.09,5,13,5.09,13,5.2z" fill="#656D78"/>
    <path d="M18.185,9.454c-2.032,-0.355,-4.674,-0.45,-6.135,-0.454c-0.001,0,-0.002,0,-0.002,0c-0.016,0,-0.032,0,-0.048,0v14.979c0.016,0,0.031,0,0.048,0c0.005,0,0.01,-0.001,0.014,-0.001c2.575,-0.013,2.646,-0.491,3.15,-0.998c0.511,-0.514,0.606,-3.723,0.606,-5.539S20,14.356,20,12.212C20,10.85,19.345,9.636,18.185,9.454z" fill-rule="evenodd" fill="#231F20" opacity="0.1"/>
  </g>
</svg>
