<?xml version="1.0" encoding="UTF-8"?>
<!DOCTYPE svg PUBLIC "-//W3C//DTD SVG 1.1//EN" "http://www.w3.org/Graphics/SVG/1.1/DTD/svg11.dtd">
<svg version="1.1" id="Layer_1" xmlns="http://www.w3.org/2000/svg" xmlns:xlink="http://www.w3.org/1999/xlink" x="0px" y="0px" width="24px" height="24px" viewBox="0 0 24 24" enable-background="new 0 0 24 24" xml:space="preserve">
  <g id="icon">
    <path d="M22.2,11h-1.2V6.8c0,-0.442,-0.358,-0.8,-0.8,-0.8h-1.2V3.8c0,-0.442,-0.358,-0.8,-0.8,-0.8h-1.2V1.8c0,-0.442,-0.358,-0.8,-0.8,-0.8h-2.4c-0.442,0,-0.8,0.358,-0.8,0.8v1.2h-2V1.8c0,-0.442,-0.358,-0.8,-0.8,-0.8H7.8c-0.442,0,-0.8,0.358,-0.8,0.8v1.2H5.8c-0.442,0,-0.8,0.358,-0.8,0.8v2.2H3.8c-0.442,0,-0.8,0.358,-0.8,0.8v4.2H1.8c-0.442,0,-0.8,0.358,-0.8,0.8v10.4c0,0.442,0.358,0.8,0.8,0.8h7.4c0.442,0,0.8,-0.358,0.8,-0.8v-9.2h0.5h3h0.5v9.2c0,0.442,0.358,0.8,0.8,0.8h7.4c0.442,0,0.8,-0.358,0.8,-0.8V11.8C23,11.358,22.642,11,22.2,11z" fill="#308FAC"/>
    <path d="M22.2,11h-1.2V6.8c0,-0.442,-0.358,-0.8,-0.8,-0.8h-1.2V3.8c0,-0.442,-0.358,-0.8,-0.8,-0.8h-0.063L14,18.39V22.2c0,0.442,0.358,0.8,0.8,0.8h7.4c0.442,0,0.8,-0.358,0.8,-0.8V11.8C23,11.358,22.642,11,22.2,11z" fill="#0E2A33" opacity="0.2"/>
    <path d="M4.5,21H3.5c-0.276,0,-0.5,-0.224,-0.5,-0.5v-7c0,-0.276,0.224,-0.5,0.5,-0.5h1c0.276,0,0.5,0.224,0.5,0.5v7C5,20.776,4.776,21,4.5,21zM7,10.5V8.5c0,-0.276,-0.224,-0.5,-0.5,-0.5H5.5c-0.276,0,-0.5,0.224,-0.5,0.5v2c0,0.276,0.224,0.5,0.5,0.5h1C6.776,11,7,10.776,7,10.5zM9,5.5V4.5c0,-0.276,-0.224,-0.5,-0.5,-0.5H7.5c-0.276,0,-0.5,0.224,-0.5,0.5v1c0,0.276,0.224,0.5,0.5,0.5h1C8.776,6,9,5.776,9,5.5zM16.5,13h1c0.276,0,0.5,0.224,0.5,0.5v7c0,0.276,-0.224,0.5,-0.5,0.5h-1c-0.276,0,-0.5,-0.224,-0.5,-0.5v-7C16,13.224,16.224,13,16.5,13zM17,10.5V8.5c0,-0.276,-0.224,-0.5,-0.5,-0.5h-1c-0.276,0,-0.5,0.224,-0.5,0.5v2c0,0.276,0.224,0.5,0.5,0.5h1C16.776,11,17,10.776,17,10.5zM16,5.5V4.5c0,-0.276,-0.224,-0.5,-0.5,-0.5h-1c-0.276,0,-0.5,0.224,-0.5,0.5v1c0,0.276,0.224,0.5,0.5,0.5h1C15.776,6,16,5.776,16,5.5z" fill="#F4FAFC"/>
  </g>
</svg>
