<?xml version="1.0" encoding="UTF-8"?>
<!DOCTYPE svg PUBLIC "-//W3C//DTD SVG 1.1//EN" "http://www.w3.org/Graphics/SVG/1.1/DTD/svg11.dtd">
<svg version="1.1" id="Layer_1" xmlns="http://www.w3.org/2000/svg" xmlns:xlink="http://www.w3.org/1999/xlink" x="0px" y="0px" width="24px" height="24px" viewBox="0 0 24 24" enable-background="new 0 0 24 24" xml:space="preserve">
  <g id="icon">
    <path d="M22.1402,5.9537L5.6311,3.9894c-0.3447,-0.0413,-0.6921,0.1093,-0.8987,0.3879c-0.1856,0.2504,-0.24,0.5652,-0.1493,0.8638l2.7782,10.4698C7.4869,16.1246,7.468,16.4,7.9,16.4c0.0235,0,0.4408,0.0017,0.4646,0c1.2675,-0.0923,12.4042,-0.9029,13.1336,-0.9735c1.2413,-0.1201,1.5019,-0.8264,1.5019,-1.3977v-7.107C23,6.4283,22.6304,6.0121,22.1402,5.9537zM8.5513,6.0026C8.8107,6.0288,9,6.2628,9,6.5236v3.6652c0,0.1772,-0.2502,0.2142,-0.3015,0.0446l-0.6919,-2.2888C8.0022,7.9301,8,7.9151,8,7.9V6.5C8,6.2081,8.2535,5.9725,8.5513,6.0026zM8,12.6714L8.2,13.9l-0.0204,0.4089C8.0708,14.217,8,14.0815,8,13.9288V12.6714zM12,14.1288c0,0.275,-0.225,0.5,-0.5,0.5s-0.5,-0.225,-0.5,-0.5V6.7c0,-0.275,0.225,-0.5,0.5,-0.5s0.5,0.225,0.5,0.5V14.1288zM15,14.0011c0,0.275,-0.225,0.5,-0.5,0.5s-0.5,-0.225,-0.5,-0.5V7c0,-0.275,0.225,-0.5,0.5,-0.5s0.5,0.225,0.5,0.5V14.0011zM18,13.8c0,0.275,-0.225,0.5,-0.5,0.5s-0.5,-0.225,-0.5,-0.5V7.4c0,-0.275,0.225,-0.5,0.5,-0.5s0.5,0.225,0.5,0.5V13.8zM21,13.6288c0,0.275,-0.225,0.5,-0.5,0.5s-0.5,-0.225,-0.5,-0.5V7.7c0,-0.275,0.225,-0.5,0.5,-0.5s0.5,0.225,0.5,0.5V13.6288z" fill="#71BFD7"/>
    <path d="M22.1402,5.9638L17.4015,5.4L15,11.662v2.478c0,0.275,-0.225,0.5,-0.5,0.5s-0.5,-0.425,-0.5,-0.7v0.1439l-0.9852,1.9868c3.6132,-0.2646,8.0328,-0.5904,8.4833,-0.634C22.7395,15.3165,23,14.6102,23,14.039V6.932C23,6.4384,22.6304,6.0222,22.1402,5.9638zM18,13.739c0,0.275,-0.225,0.5,-0.5,0.5s-0.5,-0.225,-0.5,-0.5V7.5102c0,-0.275,0.225,-0.5,0.5,-0.5s0.5,0.225,0.5,0.5V13.739zM21,13.639c0,0.275,-0.225,0.5,-0.5,0.5s-0.5,-0.225,-0.5,-0.5V7.7102c0,-0.275,0.225,-0.5,0.5,-0.5s0.5,0.225,0.5,0.5V13.639z" fill="#0E2A33" opacity="0.12"/>
    <path d="M10.3936,21.2968c0,0.9371,-0.7597,1.6968,-1.6968,1.6968S7,22.2339,7,21.2968C7,20.3597,7.7597,19.6,8.6968,19.6S10.3936,20.3597,10.3936,21.2968zM19.4032,19.6c-0.9371,0,-1.6968,0.7597,-1.6968,1.6968c0,0.9371,0.7597,1.6968,1.6968,1.6968c0.9371,0,1.6968,-0.7597,1.6968,-1.6968C21.1,20.3597,20.3403,19.6,19.4032,19.6z" fill="#89C9DD"/>
    <g>
      <path d="M21.0768,21c-0.1254,-0.8066,-0.8254,-1.4383,-1.6736,-1.4383S17.855,20.1934,17.7296,21H21.0768z" fill="#0E2A33" opacity="0.15"/>
      <path d="M10.3704,21c-0.1254,-0.8066,-0.8254,-1.4383,-1.6736,-1.4383S7.1486,20.1934,7.0232,21H10.3704z" fill="#0E2A33" opacity="0.15"/>
    </g>
    <path d="M21.475,20C20.35,20,6.9,20,6.9,20c-0.4787,0,-0.8997,-0.2512,-1.1553,-0.6893c-0.3177,-0.5444,-0.3167,-1.2895,0.0023,-1.854c0.1128,-0.1996,0.2591,-0.3662,0.4176,-0.6548c0.3006,-0.5476,0.4414,-0.7683,0.6922,-1.1862c0.2097,-0.3496,0.2248,-1.1958,0.0316,-1.7754c-0.132,-0.3961,-1.0446,-3.792,-1.8499,-6.4354C4.473,5.5481,3.9388,3.7943,3.8885,3.6434c-0.0341,-0.1024,-0.1122,-0.3364,-0.1722,-0.4036c-0.4121,-0.0962,-0.4135,-0.1783,-1.258,-0.1783C0.375,3.0615,0.8,0.7563,2.6417,1.1885c0.7502,0.1761,0.9951,0.3916,1.4301,0.4939c0.8437,0.1985,1.1013,1.0714,1.2397,1.4867c0.0537,0.1612,0.4766,1.5485,1.162,3.7988c0.7628,2.5042,1.7122,6.0206,1.838,6.398c0.2918,0.8756,0.3277,2.1946,-0.1684,3.0215c-0.236,0.3934,-0.3694,0.5007,-0.6636,1.0364c-0.1619,0.2948,-0.3114,0.5671,-0.4266,0.771C6.9972,18.2935,7.1158,18.5,7.3,18.5c0,0,12.7,0,13.9,0S22.6,20,21.475,20z" fill="#308FAC"/>
  </g>
</svg>
