<?xml version="1.0" encoding="UTF-8"?>
<!DOCTYPE svg PUBLIC "-//W3C//DTD SVG 1.1//EN" "http://www.w3.org/Graphics/SVG/1.1/DTD/svg11.dtd">
<svg version="1.1" id="Layer_1" xmlns="http://www.w3.org/2000/svg" xmlns:xlink="http://www.w3.org/1999/xlink" x="0px" y="0px" width="16px" height="16px" viewBox="0 0 16 16" enable-background="new 0 0 16 16" xml:space="preserve">
  <g id="icon">
    <path d="M9.151,12.352l-4.505,1.742c-0.441,0.171,-0.876,-0.262,-0.708,-0.704l1.72,-4.527l5.583,-5.593L8.533,0.5H0.5v15h12V9L9.151,12.352z" fill="#FFFFFF"/>
    <polygon points="12,9.5 12,15 1,15 1,1 8,1 8,5 9.514,5 10.513,4 9,4 9,1.693 10.888,3.624 11.595,2.916 8.744,0 0,0 0,16 13,16 13,8.5" fill="#383838" stroke-linejoin="miter"/>
    <path d="M3.938,13.39l0.148,-0.39H2v1h2.097C3.932,13.86,3.848,13.627,3.938,13.39zM4.888,14H11v-1H7.474L4.888,14z" fill="#238BCB"/>
    <path d="M14.38,5.077l1.029,-1.025c0.381,-0.381,-0.98,-1.741,-1.36,-1.36l-1.035,1.033" fill="#F3B8B8" stroke="#E42D2C" stroke-width="1" stroke-linecap="round" stroke-miterlimit="1"/>
    <polygon points="8.02,11.414 14.08,5.377 12.713,4.024 6.663,10.057 5.77,12.264" fill="#92CBEE" stroke="#0964B0" stroke-width="1" stroke-linecap="round" stroke-miterlimit="1" stroke-linejoin="miter"/>
  </g>
</svg>
