<?xml version="1.0" encoding="UTF-8"?>
<!DOCTYPE svg PUBLIC "-//W3C//DTD SVG 1.1//EN" "http://www.w3.org/Graphics/SVG/1.1/DTD/svg11.dtd">
<svg version="1.1" id="Layer_1" xmlns="http://www.w3.org/2000/svg" xmlns:xlink="http://www.w3.org/1999/xlink" x="0px" y="0px" width="16px" height="16px" viewBox="0 0 16 16" enable-background="new 0 0 16 16" xml:space="preserve">
  <g id="icon">
    <polygon points="15.175,4.505 3.175,4.505 4.875,10.505 13.025,10.505" fill="#FFFFFF" stroke-linejoin="miter"/>
    <path d="M0.025,1.505h2.63l2.197,9h8.203l2.118,-6H5.025" fill="none" stroke="#0C82E0" stroke-width="1" stroke-miterlimit="1"/>
    <path d="M6.033,11.531c0.824,0,1.492,0.668,1.492,1.492s-0.668,1.492,-1.492,1.492s-1.492,-0.668,-1.492,-1.492S5.208,11.531,6.033,11.531zM10.54,13.023c0,0.824,0.668,1.492,1.492,1.492c0.824,0,1.492,-0.668,1.492,-1.492s-0.668,-1.492,-1.492,-1.492C11.208,11.531,10.54,12.199,10.54,13.023z" fill="#FFFFFF" stroke="#053D6A" stroke-width="1" stroke-miterlimit="1"/>
  </g>
</svg>
