<?xml version="1.0" encoding="UTF-8"?>
<!DOCTYPE svg PUBLIC "-//W3C//DTD SVG 1.1//EN" "http://www.w3.org/Graphics/SVG/1.1/DTD/svg11.dtd">
<svg version="1.1" id="Layer_1" xmlns="http://www.w3.org/2000/svg" xmlns:xlink="http://www.w3.org/1999/xlink" x="0px" y="0px" width="16px" height="16px" viewBox="0 0 16 16" enable-background="new 0 0 16 16" xml:space="preserve">
  <g id="icon">
    <path d="M15.5,7.873c0,4.072,-3.358,7.373,-7.5,7.373c-1.294,0,-2.512,-0.322,-3.574,-0.889C3.862,14.458,0.7,15.3,0.7,15.3s0.731,-2.673,0.96,-3.486C0.925,10.674,0.5,9.322,0.5,7.873C0.5,3.801,3.858,0.5,8,0.5S15.5,3.801,15.5,7.873z" fill="#FFFFFF" stroke="#17AB4F" stroke-width="1" stroke-miterlimit="1"/>
    <path d="M5.429,7.926c0.084,-0.067,0.978,-1.327,1.07,-1.417c0.092,-0.09,0.122,-0.162,0.182,-0.274c0.06,-0.112,0.024,-0.226,-0.027,-0.328c-0.051,-0.102,-0.465,-1.085,-0.637,-1.485c-0.168,-0.39,-0.324,-0.371,-0.442,-0.398c-0.112,-0.026,-0.24,-0.051,-0.368,-0.075c-0.128,-0.024,-0.334,-0.016,-0.504,0.137c-0.17,0.153,-0.651,0.51,-0.621,1.422s0.746,1.92,0.846,2.062c0.1,0.141,1.418,2.246,3.369,3.404c0.464,0.276,0.825,0.456,1.107,0.593c0.464,0.226,0.882,0.284,1.211,0.297c0.367,0.015,1.121,-0.238,1.266,-0.641c0.146,-0.403,0.134,-0.774,0.083,-0.86s-0.18,-0.156,-0.375,-0.284l0,0c-0.195,-0.128,-1.153,-0.751,-1.331,-0.845c-0.178,-0.094,-0.307,-0.149,-0.429,0.013c-0.122,0.162,-1.445,1.404,-1.553,1.507" fill="#FFFFFF" stroke="#17AB4F" stroke-width="1" stroke-miterlimit="1"/>
  </g>
</svg>
