<?xml version="1.0" encoding="UTF-8"?>
<!DOCTYPE svg PUBLIC "-//W3C//DTD SVG 1.1//EN" "http://www.w3.org/Graphics/SVG/1.1/DTD/svg11.dtd">
<svg version="1.1" id="Layer_1" xmlns="http://www.w3.org/2000/svg" xmlns:xlink="http://www.w3.org/1999/xlink" x="0px" y="0px" width="32px" height="32px" viewBox="0 0 32 32" enable-background="new 0 0 32 32" xml:space="preserve">
  <g id="icon">
    <polygon points="30.3,9.5 6.7,9.5 9.7,21.5 26,21.5" fill="#FFFFFF" stroke-linejoin="miter"/>
    <path d="M1,3.5h4.261l4.394,18H26.06l4.236,-12H10" fill="none" stroke="#0C82E0" stroke-width="1" stroke-miterlimit="1"/>
    <path d="M12.015,23.551c1.649,0,2.985,1.336,2.985,2.985s-1.336,2.985,-2.985,2.985S9.03,28.184,9.03,26.536S10.366,23.551,12.015,23.551zM21.03,26.536c0,1.649,1.336,2.985,2.985,2.985c1.649,0,2.985,-1.336,2.985,-2.985s-1.336,-2.985,-2.985,-2.985C22.366,23.551,21.03,24.887,21.03,26.536z" fill="#FFFFFF" stroke="#053D6A" stroke-width="1" stroke-miterlimit="1"/>
  </g>
</svg>
