<?xml version="1.0" encoding="UTF-8"?>
<!DOCTYPE svg PUBLIC "-//W3C//DTD SVG 1.1//EN" "http://www.w3.org/Graphics/SVG/1.1/DTD/svg11.dtd">
<svg version="1.1" id="Layer_1" xmlns="http://www.w3.org/2000/svg" xmlns:xlink="http://www.w3.org/1999/xlink" x="0px" y="0px" width="32px" height="32px" viewBox="0 0 32 32" enable-background="new 0 0 32 32" xml:space="preserve">
  <g id="icon">
    <path d="M30.392,15.748c0,7.814,-6.443,14.148,-14.392,14.148c-2.483,0,-4.82,-0.618,-6.859,-1.707C8.06,28.384,1.992,30,1.992,30s1.403,-5.129,1.843,-6.689c-1.41,-2.187,-2.227,-4.781,-2.227,-7.563C1.608,7.934,8.052,1.6,16,1.6S30.392,7.934,30.392,15.748z" fill="#FFFFFF" stroke="#17AB4F" stroke-width="1.2" stroke-miterlimit="1"/>
    <path d="M11.373,15.847c0.151,-0.121,1.761,-2.391,1.928,-2.554c0.166,-0.163,0.22,-0.292,0.327,-0.493c0.108,-0.201,0.044,-0.407,-0.048,-0.59c-0.092,-0.183,-0.837,-1.954,-1.147,-2.676c-0.302,-0.703,-0.584,-0.668,-0.797,-0.717c-0.202,-0.047,-0.433,-0.092,-0.663,-0.134c-0.23,-0.043,-0.602,-0.028,-0.908,0.247c-0.306,0.276,-1.173,0.918,-1.119,2.561s1.344,3.46,1.524,3.715c0.18,0.255,2.555,4.046,6.07,6.134c0.836,0.497,1.487,0.821,1.994,1.068c0.836,0.407,1.589,0.511,2.182,0.535c0.661,0.027,2.019,-0.429,2.282,-1.156c0.263,-0.727,0.241,-1.395,0.15,-1.55c-0.091,-0.155,-0.324,-0.281,-0.675,-0.513h0c-0.351,-0.231,-2.077,-1.353,-2.398,-1.523c-0.321,-0.17,-0.553,-0.268,-0.772,0.023c-0.219,0.292,-2.603,2.53,-2.798,2.715" fill="#FFFFFF" stroke="#17AB4F" stroke-width="1.2" stroke-miterlimit="1"/>
  </g>
</svg>
