<?xml version="1.0" encoding="UTF-8"?>
<!DOCTYPE svg PUBLIC "-//W3C//DTD SVG 1.1//EN" "http://www.w3.org/Graphics/SVG/1.1/DTD/svg11.dtd">
<svg version="1.1" id="Layer_1" xmlns="http://www.w3.org/2000/svg" xmlns:xlink="http://www.w3.org/1999/xlink" x="0px" y="0px" width="16px" height="16px" viewBox="0 0 16 16" enable-background="new 0 0 16 16" xml:space="preserve">
  <g id="icon">
    <path d="M15.936,13.066c-0.402,-2.018,-1.116,-2.052,-5.023,-3.425c-0.57,-0.213,-0.731,-0.52,-0.689,-0.958c1.102,-1.311,1.766,-3.432,1.766,-4.915c0,-2.296,-0.787,-3.751,-4.012,-3.751S4.031,1.471,4.031,3.768c0,1.483,0.661,3.6,1.763,4.911c0.043,0.438,-0.12,0.747,-0.69,0.96c-3.907,1.373,-4.622,1.408,-5.023,3.426c-0.121,0.811,-0.141,1.151,0.181,2.05c0.362,1.012,5.477,0.879,7.716,0.879c2.239,0,7.414,0.133,7.776,-0.879C16.076,14.217,16.056,13.877,15.936,13.066zM8.918,15.466H7.066c-0.077,0,-0.136,-0.067,-0.127,-0.143l0.678,-3.87l-0.473,-0.983c-0.077,-0.151,0.033,-0.331,0.204,-0.331h1.289c0.171,0,0.281,0.179,0.204,0.331l-0.473,0.983l0.678,3.87C9.054,15.399,8.995,15.466,8.918,15.466z" fill-rule="evenodd" fill="#2D85A0"/>
  </g>
</svg>
